<?xml version="1.0" standalone="no"?>
<!DOCTYPE svg PUBLIC "-//W3C//DTD SVG 20010904//EN"
 "http://www.w3.org/TR/2001/REC-SVG-20010904/DTD/svg10.dtd">
<svg version="1.0" xmlns="http://www.w3.org/2000/svg"
 width="1080.000000pt" height="1080.000000pt" viewBox="0 0 1080.000000 1080.000000"
 preserveAspectRatio="xMidYMid meet">
<metadata>
Created by potrace 1.14, written by Peter Selinger 2001-2017
</metadata>
<g transform="translate(0.000000,1080.000000) scale(0.100000,-0.100000)"
fill="#000000" stroke="none">
<path d="M4715 10754 c-4 -26 -6 -99 -5 -163 1 -64 2 -120 1 -125 -1 -5 -22
11 -48 36 -60 55 -121 97 -198 135 -61 30 -153 58 -163 49 -2 -3 9 -27 26 -53
55 -86 89 -182 106 -298 18 -126 21 -231 6 -240 -6 -4 -25 4 -43 18 -38 28
-215 136 -272 164 -59 30 -222 80 -285 87 -30 4 -67 9 -82 12 -36 7 -38 -17
-4 -39 13 -9 29 -22 37 -29 8 -7 40 -35 72 -62 104 -88 228 -269 193 -282 -19
-7 -159 22 -244 50 -148 51 -230 100 -366 222 -46 41 -89 74 -96 74 -21 0 -7
-353 18 -465 21 -96 49 -182 65 -202 17 -23 -24 -27 -92 -10 -92 24 -192 74
-326 161 -64 42 -122 76 -129 76 -36 0 116 -377 183 -455 9 -11 24 -30 32 -42
8 -12 34 -47 58 -78 27 -34 41 -59 35 -65 -13 -13 -150 23 -216 56 -57 29
-190 124 -223 159 -11 11 -34 39 -52 60 -53 68 -49 30 8 -60 56 -89 185 -255
198 -255 4 0 24 -16 45 -35 49 -45 41 -56 -66 -90 -141 -45 -204 -50 -305 -25
-85 22 -103 29 -192 78 -22 12 -41 20 -41 17 0 -3 20 -30 44 -60 25 -30 59
-84 76 -121 52 -114 142 -222 215 -259 39 -21 28 -39 -42 -70 -101 -43 -184
-90 -231 -131 -24 -20 -41 -38 -39 -40 2 -2 23 7 48 19 39 19 63 22 222 25
105 3 177 0 177 -5 0 -5 -43 -45 -96 -88 -168 -137 -323 -197 -465 -181 -69 8
-73 1 -26 -46 79 -79 322 -197 460 -223 45 -9 29 -35 -48 -77 -82 -44 -166
-73 -250 -84 l-60 -8 60 -12 c70 -14 266 -34 343 -34 l53 0 -63 -80 c-102
-131 -157 -211 -189 -275 -43 -89 -38 -109 23 -86 13 5 95 25 183 46 88 20
164 41 169 46 6 5 16 9 24 9 16 0 18 8 -31 -180 -32 -126 -67 -363 -55 -375 3
-3 20 20 38 52 43 75 129 197 175 248 33 36 36 38 32 15 -3 -14 -21 -63 -42
-110 -47 -109 -56 -138 -44 -146 10 -6 70 28 89 51 7 8 21 15 31 15 17 0 19
-8 19 -77 l0 -78 -59 -37 c-116 -71 -126 -110 -126 -503 0 -229 3 -305 13
-320 11 -17 12 -4 5 80 -11 142 -8 426 7 520 20 132 47 176 129 208 78 32 124
17 185 -57 20 -25 42 -51 49 -58 25 -26 104 -144 125 -189 14 -29 26 -77 30
-125 5 -60 11 -79 22 -79 8 0 15 5 15 10 -1 6 -4 48 -8 95 -47 521 -47 510 28
621 48 71 51 99 9 99 -43 0 -31 35 39 125 4 5 21 29 38 53 34 47 44 47 55 -1
11 -51 50 -133 67 -140 21 -8 26 -1 33 54 6 45 34 79 34 41 1 -26 29 27 30 55
0 12 4 24 9 27 4 3 11 22 14 42 3 19 12 50 19 67 42 102 170 317 188 317 6 0
10 -43 10 -100 0 -58 4 -100 10 -100 11 0 13 3 100 153 51 87 65 105 76 96 10
-8 11 -15 4 -24 -8 -9 -8 -15 0 -20 6 -3 8 -11 5 -16 -4 -5 1 -9 9 -9 13 0 29
33 31 62 0 4 10 15 23 23 18 13 20 20 12 36 -7 13 -7 19 0 19 5 0 10 -4 10
-10 0 -5 10 1 23 13 13 12 21 28 19 35 -3 8 2 10 12 6 9 -3 16 -1 16 5 0 6 8
19 18 29 10 9 57 55 105 101 48 47 90 82 93 78 5 -5 -29 -67 -97 -174 -46 -73
18 -37 151 86 30 28 58 51 63 51 13 0 7 -37 -8 -50 -8 -7 -15 -20 -15 -30 0
-10 -7 -23 -15 -30 -8 -7 -15 -18 -15 -24 0 -7 3 -7 8 -1 4 6 34 30 67 55 32
24 85 70 116 102 50 51 79 70 79 53 0 -10 -60 -124 -105 -201 -25 -41 -45 -80
-45 -85 0 -18 32 -8 98 32 139 85 302 150 278 111 -2 -4 4 -13 14 -20 14 -9
19 -8 24 4 3 8 10 12 16 9 6 -3 17 1 26 9 8 9 22 16 30 16 8 0 14 8 14 18 0
13 2 14 9 4 6 -10 25 1 77 41 38 30 87 70 108 90 24 22 44 33 49 28 20 -20
-47 -267 -94 -349 -44 -75 -3 -68 107 20 45 35 82 57 90 54 8 -3 13 -2 10 2
-2 4 20 32 50 62 30 29 54 59 54 67 0 7 5 13 10 13 6 0 10 5 10 11 0 16 27 40
42 37 8 -2 12 5 10 17 -2 16 -1 17 7 5 5 -8 12 -12 14 -10 25 31 63 87 77 113
10 18 23 32 31 32 19 0 37 -85 49 -229 9 -120 22 -171 34 -135 3 8 17 74 30
147 14 73 28 137 32 143 3 5 37 -22 75 -61 38 -39 73 -69 77 -66 5 3 15 -6 22
-19 7 -14 16 -25 20 -25 4 0 48 -40 99 -90 51 -49 96 -90 102 -90 5 0 2 16 -6
36 -8 20 -12 40 -9 45 7 12 44 11 44 -1 0 -5 4 -10 8 -10 5 0 28 -18 53 -40
129 -115 175 -154 291 -248 70 -56 131 -102 135 -102 3 0 14 7 24 16 16 14 24
8 111 -78 114 -113 140 -147 164 -218 10 -30 22 -59 26 -65 14 -16 9 -45 -8
-45 -14 0 -15 -7 -10 -37 19 -109 26 -176 36 -368 5 -115 10 -244 10 -285 0
-52 3 -70 10 -60 5 8 10 31 10 50 0 19 6 45 13 57 6 11 27 48 45 81 63 113
200 245 268 258 109 20 162 -92 190 -411 16 -183 16 -186 -5 -307 -23 -126
-63 -225 -144 -350 -27 -42 -132 -174 -157 -198 -3 -3 -21 -25 -40 -50 -54
-70 -141 -159 -188 -192 -37 -25 -47 -28 -70 -20 -35 13 -99 14 -107 2 -8 -13
-45 -13 -45 0 0 5 4 19 9 32 5 13 21 68 36 123 15 55 29 103 32 107 2 4 20
-11 40 -32 19 -22 41 -40 47 -40 27 0 103 72 195 185 54 66 105 132 115 147
20 31 18 62 -4 64 -34 2 -40 4 -40 14 0 6 15 11 33 11 30 2 30 2 5 6 -18 3
-28 11 -28 21 0 9 -3 28 -7 42 l-6 25 23 -20 23 -20 -6 26 c-7 29 17 162 25
139 9 -25 29 38 22 68 -4 15 -13 38 -21 51 -22 35 -4 42 57 20 52 -18 56 -18
69 -2 12 16 12 16 6 -5 l-7 -24 21 21 c22 22 28 37 11 26 -7 -4 -8 3 -4 22 4
15 10 29 13 31 3 1 5 22 3 47 -2 25 1 52 7 59 25 29 -60 186 -101 186 -12 0
-174 -163 -203 -204 -11 -15 -29 -44 -40 -65 -11 -20 -28 -47 -38 -61 -37 -57
-41 -86 -17 -148 12 -31 27 -67 32 -79 6 -12 8 -31 5 -42 -9 -37 -171 -271
-179 -258 -3 6 -5 14 -3 17 3 5 11 53 46 269 5 35 8 66 5 68 -13 13 -36 -9
-36 -34 0 -66 -85 -506 -121 -628 -53 -178 -142 -441 -173 -510 -8 -16 -26
-61 -41 -100 -39 -101 -92 -203 -129 -248 -99 -126 -579 -489 -840 -636 -125
-71 -401 -207 -439 -216 -15 -4 -29 -11 -32 -15 -3 -5 -33 -11 -68 -15 -67 -7
-50 -13 -307 101 -97 43 -394 195 -516 264 -212 121 -477 318 -565 421 -75 88
-165 243 -219 379 -12 30 -32 80 -45 110 -30 74 -111 311 -130 380 -30 112
-135 542 -135 553 0 26 -22 87 -30 87 -17 0 -11 -65 15 -171 13 -57 22 -105
19 -108 -13 -13 -164 205 -164 238 0 12 11 44 25 71 42 84 36 109 -63 258 -54
82 -188 234 -223 253 -14 7 -26 2 -55 -23 -20 -18 -43 -47 -50 -65 -15 -34
-20 -167 -6 -145 6 9 13 -1 22 -29 11 -32 11 -44 2 -47 -7 -2 -2 -13 13 -30
14 -15 23 -33 20 -39 -9 -25 11 -13 55 32 42 42 112 77 126 62 4 -3 -5 -20
-19 -37 -25 -30 -32 -47 -56 -153 -18 -77 -15 -90 15 -83 22 6 25 4 19 -13 -3
-11 -1 -30 6 -43 9 -16 9 -23 0 -26 -14 -5 -15 -49 -1 -57 6 -3 10 2 11 12 0
14 2 13 10 -5 10 -26 -12 -59 -31 -47 -6 4 -10 -6 -10 -22 0 -23 28 -56 153
-180 107 -107 161 -153 176 -153 13 0 36 14 52 31 16 18 31 30 33 28 6 -9 66
-225 66 -241 0 -17 -19 -25 -117 -46 -40 -9 -45 -8 -105 35 -35 25 -72 55 -84
67 -49 51 -246 308 -295 386 -30 47 -60 94 -67 105 -7 11 -21 38 -32 60 -11
22 -20 32 -20 22 0 -23 59 -137 71 -137 5 0 9 -6 9 -14 0 -37 216 -323 330
-436 98 -97 145 -118 228 -105 101 17 103 16 123 -44 22 -64 19 -70 -55 -105
-126 -60 -178 -80 -325 -122 -337 -97 -464 -152 -525 -228 -109 -133 -140
-212 -162 -416 -8 -74 -17 -144 -20 -155 -9 -31 -106 -125 -129 -125 -11 0
-38 7 -60 15 -22 8 -69 14 -103 15 l-64 0 -65 -63 c-61 -58 -139 -162 -176
-233 -9 -17 -19 -53 -22 -80 l-7 -49 -136 -1 c-134 -2 -273 -21 -350 -49 -81
-29 -212 -97 -268 -139 -100 -75 -201 -196 -261 -311 -64 -123 -181 -432 -263
-695 -112 -356 -275 -967 -339 -1270 -12 -58 -33 -152 -46 -210 -13 -58 -45
-202 -70 -320 -25 -118 -53 -244 -61 -280 -32 -138 -74 -339 -74 -352 0 -4
485 -8 1078 -8 1031 0 1076 1 1045 18 -18 9 -64 38 -101 65 -65 45 -71 53
-122 154 -29 59 -60 129 -70 157 -10 28 -25 67 -33 86 -8 19 -18 64 -21 100
-12 114 37 742 114 1460 5 47 14 128 19 180 6 52 15 136 21 185 5 50 15 135
21 190 16 151 36 244 66 305 24 47 41 63 111 111 46 31 109 68 140 84 32 15
64 34 72 41 8 6 52 30 96 53 196 98 419 174 648 219 82 17 94 17 144 3 80 -22
133 -74 183 -179 57 -119 54 -113 93 -242 19 -63 46 -151 60 -195 15 -44 26
-86 26 -93 0 -27 -24 -4 -51 49 -15 29 -31 59 -36 64 -4 6 -14 22 -22 37 -7
14 -31 44 -53 65 l-40 38 7 -32 c5 -27 4 -32 -8 -27 -8 3 -18 1 -22 -5 -3 -6
-21 -11 -40 -11 -20 0 -35 -6 -39 -15 -3 -8 -14 -15 -25 -15 -23 0 -51 -42
-32 -48 17 -6 13 -22 -6 -22 -15 0 -16 -2 -3 -10 8 -5 30 -10 48 -10 18 0 31
-4 28 -9 -3 -4 -92 -9 -198 -10 -228 -1 -315 -8 -383 -28 -150 -45 -184 -56
-227 -75 -27 -12 -48 -26 -48 -31 0 -5 8 -6 17 -2 237 101 547 127 949 79 139
-16 204 -37 231 -73 13 -17 36 -92 47 -151 7 -40 -22 -391 -34 -403 -4 -5 -25
1 -46 12 -21 12 -47 21 -56 21 -15 0 -16 -4 -8 -25 9 -23 7 -25 -23 -26 -17 0
-147 -2 -287 -5 -252 -4 -336 -11 -477 -40 -40 -8 -88 -14 -108 -14 -19 0 -35
-5 -35 -11 0 -12 104 -7 225 11 224 33 714 36 762 5 36 -24 47 -85 34 -186 -6
-48 -11 -114 -11 -148 0 -35 -4 -61 -10 -61 -6 0 -29 12 -51 26 -45 28 -46 28
-51 -1 -1 -11 -7 -23 -11 -26 -4 -3 -9 -16 -10 -27 -1 -12 -4 -22 -7 -23 -3 0
-31 -3 -62 -5 -32 -2 -69 -9 -83 -14 -15 -6 -52 -10 -84 -10 -53 0 -280 -42
-303 -56 -6 -4 -46 -15 -90 -24 -44 -10 -82 -21 -85 -24 -17 -17 14 -16 89 2
231 55 509 86 634 70 47 -6 92 -17 99 -24 22 -22 29 -118 15 -217 -17 -127
-17 -127 -165 -192 -41 -18 -158 -52 -225 -64 -196 -37 -215 -42 -232 -61 -10
-11 -25 -20 -33 -20 -14 0 -19 -11 -16 -37 1 -6 -9 -15 -21 -19 -26 -8 -51
-39 -55 -67 -2 -11 -10 -28 -18 -40 -8 -12 -15 -36 -15 -53 0 -46 -9 -64 -34
-65 -21 0 -21 0 2 -9 27 -11 29 -30 3 -37 -10 -3 -21 -17 -24 -31 -3 -15 -17
-43 -31 -62 -14 -19 -31 -47 -37 -63 -6 -15 -15 -27 -20 -27 -5 0 -9 -8 -10
-17 0 -11 -3 -13 -6 -5 -8 21 -25 13 -18 -9 6 -19 4 -21 -15 -16 -16 4 -20 2
-16 -9 4 -9 -1 -14 -15 -14 -15 0 -18 -5 -16 -23 2 -12 2 -16 0 -9 -6 17 -16
15 -37 -9 -15 -18 -15 -23 -5 -30 10 -6 3 -9 -20 -9 -31 0 -33 -2 -27 -28 4
-17 3 -22 -2 -13 -7 10 -27 -3 -83 -58 -40 -39 -79 -71 -85 -71 -6 0 -17 -7
-24 -15 -12 -14 -51 -35 -90 -48 -8 -3 1301 -6 2910 -6 l2924 -1 -64 47 c-36
25 -72 55 -81 65 -9 10 -21 18 -28 18 -6 0 -11 7 -11 16 0 10 -6 14 -15 10 -9
-3 -15 0 -15 8 0 7 -11 18 -25 24 -14 7 -25 20 -25 31 0 11 -9 25 -20 31 -11
6 -20 19 -20 29 0 10 -8 29 -19 42 -10 13 -16 30 -13 37 2 7 -4 19 -13 26 -14
10 -17 21 -12 54 4 22 3 42 -1 44 -5 2 -12 30 -15 63 -4 48 -4 53 4 28 5 -18
11 -33 13 -33 2 0 1 24 -1 53 -3 37 -1 48 6 38 7 -11 8 -2 5 30 -4 29 -2 39 4
31 13 -19 24 26 11 49 -12 23 -12 39 2 39 15 0 39 26 39 42 0 15 -27 41 -54
51 -10 4 -20 16 -23 27 -3 11 -10 20 -15 20 -5 0 -16 6 -24 14 -8 8 -40 17
-71 21 -166 18 -263 42 -263 65 0 6 -8 10 -17 10 -9 0 -13 3 -10 6 4 4 -3 16
-15 26 -12 10 -35 38 -50 61 -25 37 -28 39 -28 18 0 -37 -10 -19 -14 25 -2 21
-13 66 -24 99 -11 33 -23 90 -26 127 -6 59 -4 68 13 77 46 25 220 48 561 76
199 16 271 28 310 50 20 12 22 14 7 15 -11 0 -33 -6 -50 -14 -33 -14 -309 -37
-447 -37 -41 0 -126 -4 -189 -10 -104 -8 -115 -8 -126 8 -10 13 -10 22 -3 30
7 9 7 13 0 13 -6 0 -12 7 -14 16 -2 9 -21 26 -43 38 -53 30 -60 62 -41 184 13
81 22 105 52 150 42 59 90 103 147 131 25 12 33 21 23 24 -22 9 -58 -4 -97
-35 -20 -15 -41 -28 -47 -28 -26 0 -26 257 -1 385 17 84 59 184 93 219 43 46
113 60 296 60 155 -1 459 -32 613 -63 51 -11 119 -22 152 -25 57 -6 62 -5 94
25 23 21 30 34 23 41 -7 7 -19 4 -39 -12 -24 -19 -35 -21 -83 -15 -30 4 -59
10 -65 15 -5 4 -26 10 -45 13 -200 30 -232 36 -224 48 3 5 -6 9 -20 9 -14 0
-26 5 -26 10 0 6 -11 10 -25 10 -30 0 -33 16 -4 23 23 6 17 27 -7 27 -8 0 -14
7 -14 16 0 12 -6 15 -21 11 -12 -3 -32 1 -44 9 -13 8 -56 18 -95 21 -61 5 -74
4 -82 -10 -5 -10 -14 -17 -19 -17 -6 0 -7 5 -3 11 4 7 1 10 -7 7 -17 -5 -23
-38 -10 -57 7 -10 13 -11 31 -1 27 15 38 5 22 -20 -11 -17 -10 -20 8 -20 11 0
20 -4 20 -10 0 -13 -30 -13 -50 0 -8 5 -17 5 -20 1 -3 -5 -65 -11 -137 -15
-155 -8 -145 -18 -114 111 83 346 193 503 383 547 l73 17 105 -35 c58 -19 155
-53 215 -76 61 -23 130 -48 155 -57 25 -8 50 -19 55 -23 6 -4 44 -20 85 -34
41 -15 89 -33 105 -41 17 -8 79 -37 140 -65 270 -126 290 -173 290 -685 -1
-303 -11 -481 -46 -790 -11 -93 -24 -296 -29 -450 -16 -457 -23 -526 -64 -623
-19 -45 -51 -113 -72 -150 -21 -37 -62 -112 -92 -167 -30 -55 -60 -109 -66
-120 -6 -12 -28 -44 -48 -72 -21 -28 -38 -53 -38 -57 0 -3 428 -6 951 -6 l951
0 -7 63 c-3 34 -10 87 -16 117 -5 30 -18 116 -29 190 -12 74 -25 158 -31 185
-8 44 -32 221 -59 430 -4 39 -22 169 -39 290 -18 121 -47 335 -66 475 -19 140
-39 284 -45 320 -5 36 -14 99 -20 140 -77 549 -82 579 -136 756 -55 183 -108
287 -208 413 -61 76 -240 200 -326 225 -71 22 -280 52 -445 66 -71 6 -151 13
-176 16 l-47 6 -4 53 c-4 44 -13 64 -48 112 -23 32 -66 81 -95 109 -49 48 -67
61 -135 96 -16 8 -65 13 -135 13 -104 0 -112 -2 -149 -27 -21 -15 -42 -25 -46
-23 -5 3 -21 38 -36 78 -33 87 -59 127 -83 127 -34 0 -40 21 -30 95 5 39 13
113 19 165 5 52 12 112 16 132 18 116 -59 235 -184 281 -37 14 -92 31 -122 37
-66 14 -223 72 -300 111 -30 15 -97 61 -148 102 -52 41 -117 84 -145 95 l-52
19 73 8 c92 9 109 23 285 230 141 166 261 337 279 400 7 22 17 49 24 60 36 60
49 139 49 310 0 191 -14 296 -56 431 -31 97 -40 110 -108 145 l-43 22 6 106
c3 58 9 128 12 154 l6 48 33 -26 c19 -14 36 -25 39 -25 3 0 22 -11 42 -25 35
-24 104 -49 112 -41 2 3 -10 33 -27 69 -27 56 -60 169 -61 205 0 20 25 14 77
-18 26 -16 75 -36 108 -45 57 -15 145 -21 145 -10 0 3 -32 37 -71 74 -40 39
-69 75 -67 82 3 9 29 16 79 20 73 6 240 54 309 89 19 10 43 27 54 39 22 24 17
27 -56 34 -65 6 -166 56 -269 133 -110 81 -117 96 -46 88 99 -11 377 64 364
99 -3 7 -11 10 -18 7 -8 -3 -57 -4 -109 -4 -94 1 -173 23 -259 69 -24 13 -24
14 -5 15 11 0 56 9 99 20 120 31 264 109 368 200 44 39 123 147 115 156 -3 2
-58 -1 -124 -8 -114 -11 -124 -10 -247 15 -71 14 -154 38 -185 53 l-57 27 66
12 c74 15 197 73 248 117 43 38 106 118 115 145 11 33 -9 36 -63 9 -115 -59
-168 -71 -301 -71 -121 0 -127 1 -195 33 -68 33 -105 58 -105 73 0 4 29 43 63
86 118 147 175 241 223 370 13 34 53 102 89 150 67 90 101 150 91 160 -3 3
-27 -4 -53 -15 -51 -22 -165 -45 -299 -61 -60 -8 -111 -6 -200 4 -65 8 -154
18 -197 21 -63 6 -77 10 -75 23 4 22 65 61 215 137 97 49 130 70 123 79 -20
24 -209 50 -368 49 -149 0 -152 0 -146 20 4 12 10 23 14 26 13 8 98 196 115
253 24 79 46 230 36 240 -6 6 -36 -11 -76 -39 -95 -70 -180 -122 -223 -138
-20 -7 -68 -25 -107 -39 -70 -25 -150 -41 -257 -51 -31 -3 -63 -9 -72 -12 -32
-12 -27 25 12 83 50 74 95 163 131 261 30 81 65 231 56 240 -3 3 -29 -19 -59
-49 -66 -66 -99 -95 -151 -133 -22 -17 -42 -32 -45 -35 -20 -23 -112 -89 -200
-144 -101 -64 -162 -89 -173 -71 -7 13 37 221 63 296 12 35 38 91 57 126 19
34 33 67 31 73 -6 17 -139 -83 -205 -154 -76 -81 -153 -211 -168 -280 -7 -35
-17 -29 -62 41 -77 120 -160 329 -178 450 -5 28 -12 42 -22 42 -31 0 -7 -115
60 -291 32 -83 57 -132 125 -242 65 -106 79 -109 105 -22 27 91 86 201 142
264 54 61 121 121 136 121 5 0 -7 -30 -26 -67 -50 -97 -77 -201 -82 -320 -5
-98 -4 -103 15 -103 18 0 67 22 96 43 6 4 59 39 118 77 102 67 227 162 304
233 45 40 61 50 68 39 5 -8 -27 -104 -67 -207 -28 -70 -82 -155 -137 -217 -33
-36 -56 -68 -53 -72 4 -3 52 -6 108 -6 102 0 257 27 373 66 73 25 203 96 266
147 60 50 80 58 72 30 -2 -10 -14 -55 -25 -100 -47 -186 -92 -274 -233 -457
-59 -77 -96 -132 -90 -138 15 -15 34 0 96 74 32 38 69 76 81 84 39 25 202 47
265 35 30 -6 87 -13 125 -17 39 -4 79 -10 90 -14 17 -6 15 -9 -15 -23 -171
-77 -235 -112 -285 -156 -48 -42 -40 -60 36 -77 76 -17 357 -35 464 -29 116 7
146 12 228 37 37 11 70 18 74 14 4 -3 -7 -21 -23 -39 -17 -17 -46 -52 -66 -77
-59 -72 -178 -193 -247 -249 -96 -79 -159 -117 -318 -196 -84 -41 -109 -64
-85 -79 15 -9 286 132 347 181 6 5 30 24 55 42 25 19 69 57 98 85 76 73 70 32
-16 -111 -52 -86 -119 -165 -215 -255 -55 -52 -69 -70 -60 -79 9 -9 18 -8 37
5 28 18 62 21 70 7 9 -14 137 -73 191 -87 101 -27 230 -12 349 41 86 38 102
29 44 -27 -96 -94 -214 -143 -373 -154 -110 -7 -141 -16 -115 -34 8 -6 26 -13
40 -16 14 -4 76 -26 137 -51 108 -42 120 -45 261 -54 82 -5 174 -7 205 -4 49
4 57 2 57 -13 -1 -28 -60 -86 -145 -143 -137 -91 -201 -118 -343 -140 -100
-15 -120 -26 -103 -57 6 -12 25 -29 41 -37 17 -9 30 -20 30 -26 0 -6 4 -8 9
-5 4 3 32 -3 62 -14 29 -11 67 -20 84 -20 38 0 75 -10 75 -20 0 -4 -41 -10
-90 -13 -89 -6 -92 -5 -153 29 -34 19 -73 39 -87 44 -47 19 -148 75 -226 125
-80 51 -99 69 -219 200 -81 87 -102 103 -111 81 -4 -10 17 -41 59 -86 35 -39
69 -81 75 -93 12 -27 72 -278 72 -305 0 -11 7 -38 15 -61 8 -22 11 -41 6 -41
-12 0 -282 280 -343 356 -30 38 -58 81 -62 97 -3 15 -11 27 -16 27 -27 0 -63
-262 -58 -430 2 -72 2 -130 2 -130 -1 0 -28 25 -60 56 -33 31 -75 68 -94 83
-68 51 -99 84 -104 110 -3 14 -10 82 -16 151 -6 69 -13 143 -17 165 l-7 40 -7
-30 c-11 -50 -10 -434 2 -456 5 -11 9 -32 7 -46 -4 -35 -146 248 -184 367 -34
106 -50 140 -69 140 -21 0 -19 -26 10 -116 14 -44 30 -95 36 -114 7 -19 26
-65 44 -101 18 -36 38 -84 45 -105 7 -21 21 -51 32 -66 11 -16 17 -28 13 -28
-3 0 3 -10 15 -22 11 -12 17 -24 14 -27 -3 -3 -8 -1 -12 4 -7 11 -56 54 -136
120 -62 51 -187 204 -241 292 -5 10 -28 44 -50 78 -85 129 -99 156 -114 230
-15 67 -27 95 -41 95 -15 0 -12 -65 5 -145 9 -39 20 -93 25 -120 6 -28 21 -82
35 -119 14 -38 23 -71 21 -73 -8 -8 -136 168 -136 186 0 5 -6 16 -14 23 -7 8
-34 50 -59 94 -37 66 -46 92 -51 149 -8 84 -24 186 -37 238 -7 27 -15 37 -29
37 -22 0 -24 -12 -11 -73 26 -115 42 -287 32 -344 -5 -32 -13 -98 -17 -148
l-7 -90 -13 74 c-15 89 -53 211 -65 211 -5 0 -9 6 -9 13 0 8 -11 24 -24 36
l-24 23 -15 -24 c-8 -12 -18 -41 -22 -62 -20 -114 -154 -327 -277 -441 -62
-57 -99 -74 -78 -34 47 88 79 265 84 469 5 214 2 219 -74 103 -60 -90 -72
-106 -168 -224 -41 -49 -81 -93 -90 -98 -10 -5 -33 -25 -52 -45 -34 -35 -50
-44 -50 -28 0 4 29 39 65 77 35 39 64 75 65 82 0 6 4 13 8 15 9 4 102 124 102
132 0 3 19 35 41 71 23 36 54 93 70 125 22 48 25 61 14 70 -10 8 -18 5 -34
-15 -11 -15 -23 -35 -26 -45 -6 -18 -84 -143 -105 -167 -5 -7 -10 -15 -10 -18
0 -8 -68 -104 -113 -160 -54 -66 -109 -125 -182 -195 -53 -51 -78 -73 -159
-135 -28 -21 -32 -11 -9 22 54 76 119 219 168 368 50 153 71 243 58 256 -15
15 -43 -4 -73 -50 -53 -79 -331 -414 -374 -450 -15 -12 -16 -12 -10 5 4 10 15
30 24 44 55 83 170 370 170 425 0 31 -30 13 -66 -40 -20 -31 -48 -62 -63 -69
-27 -15 -274 -265 -327 -332 -91 -116 -164 -215 -164 -223 0 -6 -6 -14 -13
-18 -7 -4 -21 -25 -31 -45 -9 -21 -20 -38 -24 -38 -4 0 -18 -22 -31 -50 -13
-27 -28 -50 -32 -50 -5 0 -9 -10 -10 -22 0 -13 -3 -17 -6 -10 -3 7 0 25 6 40
5 15 13 61 15 102 9 116 24 241 36 285 6 22 17 67 25 100 16 70 37 120 94 222
14 25 21 48 17 59 -6 15 -10 14 -35 -10 -31 -30 -84 -132 -95 -182 -4 -17 -28
-53 -54 -81 -88 -93 -119 -128 -170 -194 -60 -78 -142 -205 -142 -219 0 -6 -5
-10 -11 -10 -19 0 0 251 27 359 13 52 23 96 21 98 -10 9 -133 -95 -227 -194
-58 -60 -107 -113 -109 -119 -2 -5 -10 -18 -17 -29 -13 -19 -14 -18 -14 8 0
15 3 27 8 27 4 0 8 32 10 70 3 60 8 78 38 122 36 55 44 98 19 98 -8 0 -22 -11
-32 -25 -10 -14 -26 -35 -35 -47 -10 -11 -18 -25 -18 -30 0 -4 -62 -8 -137 -8
l-138 1 39 19 c56 28 99 63 183 149 89 90 137 156 129 177 -5 13 -9 13 -30 -1
-13 -9 -36 -33 -51 -54 -72 -105 -234 -227 -352 -265 -40 -13 -53 -22 -53 -37
0 -17 8 -19 100 -19 55 0 100 -2 100 -4 0 -13 -153 -149 -218 -194 -42 -29
-78 -56 -81 -61 -4 -4 -27 -20 -53 -34 -25 -14 -64 -37 -87 -51 -22 -14 -43
-26 -46 -26 -3 0 6 17 20 37 36 53 21 65 -65 53 -73 -11 -180 -11 -225 -1 -28
6 -24 9 50 34 45 15 102 44 131 66 50 38 53 39 180 50 70 6 132 15 137 20 7 7
-90 21 -248 36 -84 7 -139 16 -165 25 -14 5 -45 14 -70 21 -54 13 -258 113
-283 138 -18 17 -15 18 60 24 43 4 105 15 138 25 91 28 231 119 367 239 37 32
38 32 83 19 50 -16 67 -6 41 23 -35 38 -220 53 -381 30 -42 -6 -79 -8 -82 -5
-8 8 47 32 165 71 95 32 116 36 138 27 61 -28 189 -21 145 7 -8 5 -44 17 -80
26 -36 9 -82 23 -101 32 -56 26 -153 99 -175 132 -11 17 -23 31 -27 31 -5 0
-8 5 -8 11 0 5 -13 27 -29 47 -33 43 -48 77 -28 66 6 -4 32 -24 57 -44 62 -51
177 -119 220 -130 37 -9 96 -14 145 -11 27 1 28 3 12 15 -9 7 -38 16 -64 20
-25 3 -80 22 -122 43 -82 39 -244 143 -236 151 2 3 32 -1 65 -8 40 -9 93 -11
153 -7 103 7 147 18 229 54 l56 25 65 -36 c67 -38 97 -45 97 -23 0 12 -13 22
-75 57 -34 19 -58 38 -104 79 -14 13 -43 35 -63 49 -21 13 -38 27 -38 31 0 3
-20 29 -45 56 -41 46 -53 65 -40 65 3 0 31 -20 62 -44 32 -24 87 -59 123 -78
58 -30 75 -33 163 -36 73 -3 97 -1 97 9 0 7 -26 44 -58 83 -86 105 -149 200
-193 287 -21 43 -39 81 -39 84 0 4 -6 21 -14 38 -38 91 -45 117 -28 117 5 0
28 -17 52 -37 77 -66 269 -162 375 -188 78 -20 106 -32 118 -51 8 -15 37 -19
37 -6 0 4 -21 57 -46 117 -57 139 -80 235 -99 424 -14 147 -13 181 7 181 5 0
37 -26 71 -58 97 -90 141 -120 250 -172 127 -60 223 -88 365 -106 47 -6 52 -5
52 13 0 83 -132 266 -257 356 -76 54 -52 61 81 22 122 -35 276 -115 438 -226
31 -22 66 -39 77 -39 20 0 21 5 21 143 0 165 -18 255 -75 376 -19 40 -35 75
-35 78 0 15 64 -15 140 -64 94 -62 209 -172 227 -218 53 -139 69 -173 99 -221
23 -37 41 -54 55 -54 11 0 19 3 17 8 -2 4 -29 59 -60 122 -65 133 -75 173 -83
330 -3 63 -8 136 -12 163 -3 26 -2 47 3 47 5 0 25 -35 44 -77 39 -89 115 -188
221 -289 81 -77 235 -194 255 -194 26 0 25 22 -4 48 -34 31 -46 74 -76 262 -5
34 -5 34 8 10 8 -14 26 -56 42 -95 26 -67 63 -128 153 -258 25 -36 42 -75 47
-103 5 -35 9 -42 19 -34 8 6 16 30 20 53 3 23 10 74 16 112 33 224 55 301 112
388 20 30 44 37 32 10 -37 -87 -72 -521 -44 -539 23 -14 31 20 41 168 11 175
50 412 77 474 11 23 22 56 26 74 6 27 4 31 -11 28 -9 -1 -22 -18 -28 -36 -7
-19 -21 -44 -33 -56 -93 -97 -153 -217 -189 -381 -15 -66 -31 -124 -36 -130
-12 -12 -68 51 -102 116 -14 25 -39 73 -57 105 -17 32 -51 110 -74 172 l-42
112 -11 -48 c-10 -45 1 -192 23 -298 4 -17 3 -34 -3 -38 -10 -6 -134 93 -187
149 -79 84 -126 149 -178 245 -56 104 -81 116 -92 44z m3083 -4204 c10 -17 10
-20 -3 -20 -8 0 -15 2 -15 4 0 2 -3 11 -6 20 -9 23 9 20 24 -4z m-4645 -54 c4
-10 1 -13 -8 -9 -8 3 -12 9 -9 14 7 12 11 11 17 -5z m4488 -649 c-10 -9 -11
-8 -5 6 3 10 9 15 12 12 3 -3 0 -11 -7 -18z m-4334 -42 c6 -14 9 -25 6 -25 -9
0 -33 29 -33 39 0 19 15 11 27 -14z m4313 15 c0 -5 -5 -10 -11 -10 -5 0 -7 5
-4 10 3 6 8 10 11 10 2 0 4 -4 4 -10z m-4040 -280 c0 -5 -5 -10 -11 -10 -5 0
-7 5 -4 10 3 6 8 10 11 10 2 0 4 -4 4 -10z m4065 -2280 c4 -6 -3 -25 -13 -43
-11 -17 -34 -70 -50 -117 -49 -138 -64 -172 -99 -223 -18 -26 -33 -51 -33 -57
0 -5 -6 -13 -13 -17 -20 -13 -67 -80 -60 -87 4 -3 1 -6 -6 -6 -8 0 -10 -8 -6
-22 4 -15 3 -19 -3 -10 -7 10 -11 10 -22 -3 -12 -14 -11 -18 0 -25 8 -5 17 -7
21 -4 4 2 5 -6 1 -18 -4 -16 -7 -18 -10 -8 -9 27 -42 40 -42 17 0 -7 -16 -28
-35 -47 -19 -19 -35 -38 -35 -42 0 -4 -28 -38 -62 -74 -80 -84 -88 -99 -81
-151 4 -33 2 -43 -8 -43 -26 0 -87 59 -109 105 -19 40 -20 49 -9 82 6 21 29
63 49 93 56 83 117 185 175 290 175 319 205 367 243 381 22 9 144 33 189 38 6
0 15 -4 18 -9z m-3836 -46 c15 -9 35 -30 46 -47 34 -58 112 -212 120 -237 10
-32 141 -296 164 -329 21 -31 51 -124 51 -157 0 -35 -26 -94 -53 -116 l-22
-20 -10 89 c-9 75 -15 95 -45 138 -63 91 -102 159 -127 224 -47 124 -121 276
-145 298 -10 9 -28 13 -43 11 -14 -3 -25 -2 -25 3 0 4 -8 10 -18 14 -18 5 -42
62 -42 98 0 9 17 21 43 30 55 20 73 20 106 1z m-72 -206 c-3 -7 -5 -2 -5 12 0
14 2 19 5 13 2 -7 2 -19 0 -25z m1853 -153 c10 -13 9 -15 -12 -15 -37 0 -86
-57 -97 -113 -10 -53 -15 -62 -30 -52 -18 11 -12 39 17 86 29 44 90 109 103
109 3 0 12 -7 19 -15z m2470 -45 c11 -7 6 -10 -20 -10 -26 0 -31 3 -20 10 8 5
17 10 20 10 3 0 12 -5 20 -10z m-140 -8 c0 -4 35 -9 77 -10 103 -4 107 -12 6
-12 -59 0 -84 4 -93 15 -9 10 -9 15 -1 15 6 0 11 -3 11 -8z m-2330 -44 c-21
-46 -45 -78 -60 -78 -16 0 -12 13 25 68 43 62 61 68 35 10z m1739 -182 c-9 -8
-10 -7 -5 7 3 10 7 26 7 35 1 9 4 6 6 -7 3 -13 -1 -28 -8 -35z m-14 -25 c-6
-5 -25 10 -25 20 0 5 6 4 14 -3 8 -7 12 -15 11 -17z m-1733 -697 c-30 -20 -72
-106 -72 -144 0 -27 -2 -29 -19 -21 -30 16 -32 39 -9 88 15 31 36 55 66 74 46
29 74 32 34 3z m62 -62 c-10 -15 -21 -45 -24 -67 -4 -33 -9 -41 -29 -43 -13
-2 -27 0 -32 5 -15 15 17 78 58 117 41 39 56 32 27 -12z"/>
<path d="M4368 9428 c-70 -35 -115 -45 -288 -64 -74 -8 -145 -17 -157 -19 -31
-7 -29 -36 5 -57 15 -10 47 -33 72 -52 25 -19 51 -35 58 -35 18 -1 82 -44 81
-56 0 -22 -169 -116 -272 -151 -39 -13 -89 -24 -111 -24 -23 0 -47 -4 -54 -8
-21 -14 -3 -40 36 -53 21 -6 42 -15 47 -19 17 -12 98 -30 150 -32 l50 -3 -162
-80 c-118 -58 -163 -85 -163 -97 0 -16 11 -18 95 -18 51 0 117 5 145 11 78 17
85 9 45 -52 -37 -55 -68 -144 -63 -181 3 -20 8 -16 45 32 56 75 183 199 183
179 0 -9 -8 -27 -17 -40 -49 -67 -115 -196 -111 -217 5 -27 32 -20 46 13 12
25 37 67 135 230 7 10 18 25 25 33 6 7 12 17 12 22 0 5 6 15 13 22 29 30 117
170 111 179 -6 11 -41 12 -46 2 -12 -29 -182 -118 -268 -142 -25 -7 -59 -17
-76 -22 -17 -5 -46 -9 -65 -9 -33 1 -32 1 26 30 33 16 69 35 79 42 155 102
236 162 309 229 100 92 101 99 8 125 -63 18 -205 87 -236 113 -11 10 -28 21
-38 24 -28 10 -10 27 29 27 19 0 56 5 82 10 26 6 70 15 97 21 120 26 238 77
239 104 2 19 -39 12 -96 -17z"/>
<path d="M6216 9298 c-27 -107 -85 -250 -136 -335 -20 -33 -27 -54 -20 -58 13
-8 72 52 95 97 48 96 109 283 99 300 -8 13 -34 9 -38 -4z"/>
<path d="M5918 9220 c-76 -99 -121 -150 -167 -190 -73 -62 -175 -133 -246
-171 -89 -47 -105 -63 -67 -71 37 -8 201 93 335 208 77 66 197 212 197 240 0
24 -27 16 -52 -16z"/>
<path d="M5705 9208 c-22 -18 -42 -35 -45 -38 -29 -32 -231 -160 -253 -160 -7
0 -35 -11 -64 -24 -55 -26 -298 -90 -316 -83 -7 2 4 12 23 22 38 19 181 134
218 174 35 38 82 103 82 113 0 24 -40 1 -73 -43 -47 -60 -222 -192 -322 -243
-84 -43 -104 -61 -87 -78 9 -9 37 -9 114 0 151 18 145 20 106 -34 -18 -26 -53
-63 -78 -83 -62 -50 -76 -71 -45 -71 19 0 192 54 265 83 155 61 349 214 440
347 21 30 52 68 69 84 31 30 41 66 18 66 -7 0 -30 -14 -52 -32z"/>
<path d="M7041 9216 c-8 -9 -2 -21 23 -43 19 -16 51 -55 71 -87 38 -60 64 -77
147 -95 69 -15 258 -25 258 -13 0 5 -30 28 -67 51 -38 22 -63 41 -58 42 6 1
36 0 67 -1 59 -2 127 15 140 34 15 22 -20 34 -70 24 -82 -16 -258 15 -431 76
-55 19 -72 22 -80 12z"/>
<path d="M7050 9029 c0 -6 21 -37 48 -69 26 -31 54 -67 62 -80 8 -12 23 -32
32 -44 31 -41 98 -235 98 -285 0 -7 -21 15 -47 49 -27 35 -59 75 -73 90 -27
29 -164 140 -172 140 -3 0 -36 20 -72 45 -37 25 -73 45 -80 45 -7 0 -40 11
-74 25 -101 41 -190 28 -99 -15 28 -13 56 -43 186 -195 70 -83 138 -182 170
-250 18 -38 40 -86 49 -105 10 -19 22 -34 27 -32 12 3 14 236 2 300 -4 26 -4
41 2 38 5 -3 43 -52 84 -108 93 -126 124 -161 137 -153 14 9 13 142 -2 207
-13 60 -105 246 -146 296 -70 87 -96 112 -113 112 -11 0 -19 -5 -19 -11z"/>
<path d="M5216 7961 c-4 -5 -2 -12 3 -15 5 -4 12 -2 15 3 4 5 2 12 -3 15 -5 4
-12 2 -15 -3z"/>
<path d="M6500 7480 c-264 -23 -515 -103 -573 -184 -44 -62 -107 -168 -107
-182 0 -18 24 -18 40 1 7 8 16 15 20 15 5 0 38 19 74 43 135 88 247 148 411
223 120 54 183 74 236 74 26 0 51 5 54 10 7 11 -24 11 -155 0z"/>
<path d="M4224 7435 c11 -8 34 -15 50 -15 17 0 51 -5 76 -11 25 -6 72 -17 105
-24 91 -19 266 -85 395 -150 107 -53 244 -137 256 -156 8 -14 34 -10 34 4 0
21 -155 172 -221 216 -102 69 -273 121 -393 121 -39 0 -116 7 -170 15 -55 8
-111 15 -125 15 -25 -1 -25 -1 -7 -15z"/>
<path d="M6035 7161 c-41 -10 -76 -30 -97 -55 -24 -28 -22 -43 5 -49 12 -3 32
-9 45 -12 18 -6 22 -4 22 14 0 11 4 21 9 21 4 0 6 -11 3 -25 -3 -15 -11 -25
-22 -25 -10 0 -20 -9 -23 -20 -3 -11 -13 -23 -23 -27 -30 -11 -64 -46 -64 -65
0 -25 17 -23 55 7 18 13 77 54 131 90 101 69 122 89 104 100 -15 9 -61 -3 -82
-21 -12 -11 -18 -12 -23 -4 -4 7 -1 16 6 21 11 7 9 9 -6 10 -14 0 -15 2 -5 6
31 10 60 27 60 35 0 10 -53 9 -95 -1z m35 -85 c0 -3 -4 -8 -10 -11 -5 -3 -10
-1 -10 4 0 6 5 11 10 11 6 0 10 -2 10 -4z m-70 -16 c0 -5 -4 -10 -10 -10 -5 0
-10 5 -10 10 0 6 5 10 10 10 6 0 10 -4 10 -10z"/>
<path d="M4825 7140 c-19 -8 -19 -9 2 -9 12 -1 24 -9 28 -20 3 -11 15 -23 26
-26 10 -4 19 -11 19 -16 0 -14 -43 -11 -83 6 -30 12 -37 12 -46 1 -15 -18 5
-39 73 -73 28 -14 81 -45 117 -69 67 -44 89 -53 89 -34 0 15 -28 43 -75 75
-22 14 -41 31 -41 36 -1 5 -2 13 -3 19 0 5 -8 7 -16 4 -27 -11 -16 4 15 20 17
8 30 11 30 7 0 -4 9 -7 20 -8 27 -2 25 3 -12 42 -17 19 -45 37 -62 40 -17 4
-38 8 -46 10 -8 2 -24 0 -35 -5z"/>
<path d="M4940 7040 c0 -5 7 -10 16 -10 8 0 12 5 9 10 -3 6 -10 10 -16 10 -5
0 -9 -4 -9 -10z"/>
<path d="M6480 7014 c-80 -10 -200 -37 -275 -61 -74 -24 -257 -112 -279 -134
-22 -20 38 -7 94 21 33 17 62 30 65 30 13 0 2 -26 -36 -81 -39 -58 -111 -200
-124 -246 -14 -49 13 -28 115 88 149 170 200 201 390 243 41 9 93 21 115 26
91 21 281 30 415 20 183 -13 175 -13 160 5 -14 17 -74 36 -205 66 -88 20 -346
34 -435 23z"/>
<path d="M4242 6999 c-168 -12 -462 -76 -462 -100 0 -12 5 -12 157 6 159 18
251 20 373 7 182 -20 308 -56 377 -108 17 -13 36 -24 42 -24 12 0 134 -121
172 -171 15 -19 36 -54 48 -78 26 -51 47 -44 29 9 -24 73 -93 217 -129 272
-62 91 -55 96 45 38 37 -22 72 -40 77 -40 21 0 6 21 -37 50 -166 112 -405 160
-692 139z"/>
<path d="M4382 6859 c-129 -25 -208 -115 -236 -266 -22 -120 -20 -161 10 -252
21 -64 35 -88 76 -129 73 -73 106 -87 208 -87 87 1 118 11 183 59 75 55 117
182 117 350 0 89 -21 186 -40 186 -4 0 -10 10 -13 23 -10 37 -104 100 -172
114 -67 14 -73 14 -133 2z m110 -195 c10 -58 24 -107 35 -123 27 -36 80 -61
131 -61 64 0 48 -22 -25 -35 -100 -18 -152 -70 -168 -165 -4 -25 -11 -52 -15
-60 -11 -20 -15 -10 -33 92 -23 123 -55 157 -164 170 -35 4 -68 10 -74 13 -21
14 5 25 58 25 73 0 129 18 162 50 24 25 38 63 56 158 4 17 10 32 14 32 4 0 15
-43 23 -96z"/>
<path d="M6358 6817 c-54 -28 -68 -42 -101 -95 -56 -93 -71 -213 -46 -359 9
-53 18 -71 57 -114 25 -28 68 -63 96 -80 44 -25 62 -29 124 -29 83 0 127 18
192 76 57 52 78 91 95 178 19 103 5 276 -30 352 -21 45 -31 55 -79 78 -47 22
-68 26 -150 26 -87 0 -99 -3 -158 -33z m126 -33 c3 -9 6 -31 6 -49 0 -19 9
-59 21 -90 25 -68 48 -81 154 -89 86 -7 90 -8 82 -29 -3 -8 -26 -16 -59 -20
-75 -8 -141 -38 -158 -73 -8 -18 -16 -76 -20 -149 -4 -98 -8 -120 -20 -120
-12 0 -17 19 -22 80 -14 174 -48 218 -179 232 -77 8 -77 26 1 46 61 15 115 52
143 97 8 14 18 60 22 103 7 74 16 94 29 61z"/>
<path d="M3840 6460 c0 -6 4 -18 9 -28 6 -9 17 -42 27 -72 17 -56 42 -104 78
-152 12 -15 32 -43 46 -63 24 -34 77 -72 87 -62 2 3 -4 10 -15 16 -49 26 -117
136 -204 329 -19 41 -28 52 -28 32z"/>
<path d="M7020 6391 c-12 -24 -13 -34 -1 -27 9 6 22 46 15 46 -2 0 -8 -9 -14
-19z"/>
<path d="M6956 6291 c-21 -33 -69 -89 -107 -126 -64 -62 -81 -85 -61 -85 10 0
121 115 159 165 38 50 66 105 55 105 -5 0 -26 -27 -46 -59z"/>
<path d="M7182 6107 c-50 -103 -124 -176 -265 -261 -54 -32 -96 -64 -94 -70
11 -35 231 2 293 49 42 32 77 108 104 225 12 52 23 100 25 107 2 6 -2 17 -10
23 -10 8 -21 -6 -53 -73z"/>
<path d="M3663 6123 c-8 -20 14 -127 34 -168 27 -54 81 -112 139 -150 44 -30
77 -42 153 -57 52 -10 102 -17 110 -16 8 2 -31 31 -85 65 -120 74 -256 209
-293 291 -25 52 -46 66 -58 35z"/>
<path d="M6293 6064 c21 -9 41 -14 44 -10 9 9 2 13 -42 20 l-40 6 38 -16z"/>
<path d="M6601 6071 c-25 -3 -46 -12 -49 -18 -2 -7 2 -13 10 -13 27 0 88 21
88 30 0 6 -1 9 -2 8 -2 0 -23 -4 -47 -7z"/>
<path d="M4665 6053 c-11 -2 -30 -6 -43 -9 -13 -2 -20 -9 -17 -14 4 -6 17 -8
31 -5 13 3 35 7 49 10 14 3 25 10 25 15 0 10 -10 11 -45 3z"/>
<path d="M4256 6021 c7 -7 107 -41 121 -41 2 0 3 4 3 9 0 5 -24 17 -54 25 -62
18 -85 20 -70 7z"/>
<path d="M5380 5540 c0 -5 5 -10 10 -10 6 0 19 -9 31 -21 11 -11 23 -18 26
-15 7 6 -43 56 -57 56 -5 0 -10 -4 -10 -10z"/>
<path d="M5650 5531 c-13 -25 -13 -34 0 -26 16 10 32 45 21 45 -6 0 -15 -9
-21 -19z"/>
<path d="M6060 5050 l-105 -6 150 -2 c172 -3 185 -8 185 -68 -1 -71 -29 -114
-115 -171 -86 -58 -103 -63 -130 -33 -10 11 -30 20 -44 20 -26 -1 -26 -1 11
-35 21 -19 46 -35 56 -35 10 0 44 15 75 34 80 49 83 26 6 -49 -109 -106 -211
-159 -369 -195 -52 -12 -104 -26 -115 -30 -44 -19 24 -10 127 16 118 30 206
61 229 80 8 8 19 14 23 14 4 0 31 18 61 41 82 62 159 171 195 275 24 69 25
102 4 132 -17 24 -25 25 -244 12z"/>
<path d="M5784 5029 c-4 -8 16 -9 72 -4 44 4 81 9 83 11 2 2 -30 4 -72 4 -44
0 -79 -5 -83 -11z"/>
<path d="M5635 5010 c-7 -11 16 -11 60 0 28 7 28 8 -12 9 -23 0 -45 -3 -48 -9z"/>
<path d="M5553 4993 c9 -2 23 -2 30 0 6 3 -1 5 -18 5 -16 0 -22 -2 -12 -5z"/>
<path d="M4770 4969 c-69 -7 -88 -12 -102 -30 -25 -30 -23 -43 21 -135 56
-117 116 -172 265 -245 65 -33 126 -59 135 -59 9 1 -29 23 -83 51 -119 60
-199 112 -226 147 -11 14 -19 26 -18 27 3 3 294 20 511 31 70 3 127 10 127 15
0 6 -39 7 -92 4 -51 -3 -196 -10 -323 -15 -256 -9 -253 -10 -281 57 -17 40
-18 105 -2 121 9 9 88 12 295 12 263 0 348 8 237 24 -63 8 -358 5 -464 -5z"/>
<path d="M5903 4793 c9 -2 25 -2 35 0 9 3 1 5 -18 5 -19 0 -27 -2 -17 -5z"/>
<path d="M5715 4780 c-34 -6 -30 -7 32 -9 39 0 75 4 78 9 7 11 -47 11 -110 0z"/>
<path d="M5568 4763 c12 -2 30 -2 40 0 9 3 -1 5 -23 4 -22 0 -30 -2 -17 -4z"/>
<path d="M5115 4493 c17 -17 97 -32 201 -37 78 -4 87 -3 44 4 -139 21 -187 29
-220 36 -23 4 -32 3 -25 -3z"/>
<path d="M7710 2850 c0 -5 5 -10 10 -10 6 0 10 5 10 10 0 6 -4 10 -10 10 -5 0
-10 -4 -10 -10z"/>
<path d="M7680 2806 c0 -9 5 -16 10 -16 6 0 10 4 10 9 0 6 -4 13 -10 16 -5 3
-10 -1 -10 -9z"/>
<path d="M7695 2151 c-51 -4 -9 -8 150 -13 121 -5 293 -11 383 -15 121 -4 162
-3 162 6 0 6 -12 16 -26 21 -27 10 -545 11 -669 1z"/>
<path d="M7578 2143 c7 -3 16 -2 19 1 4 3 -2 6 -13 5 -11 0 -14 -3 -6 -6z"/>
</g>
</svg>
